<svg width="952" height="106" viewBox="0 0 952 106" fill="none" xmlns="http://www.w3.org/2000/svg">
<g clip-path="url(#clip0_409_1134)">
<path d="M18.3161 29.0015C22.2332 19.8236 21.2762 9.3516 15.9509 1.19019C23.4579 4.54202 29.7004 8.55827 33.9051 21.2566C36.9644 30.489 34.8422 41.3329 31.3862 51.8197C25.9023 69.4863 25.8032 79.0707 37.8618 94.8432C17.6814 79.8194 9.97119 72.1687 9.97119 58.93C10.3976 41.3279 14.394 38.1744 18.3161 29.0015Z" fill="#FBC441"/>
<path d="M149.419 28.6891C145.497 19.5162 146.459 9.04423 151.784 0.882812C144.273 4.23464 138.03 8.24594 133.825 20.9492C130.766 30.1766 132.888 41.0255 136.344 51.5124C141.828 69.1789 141.927 78.7634 129.869 94.5358C150.049 79.5121 157.759 71.8564 157.759 58.6176C157.333 41.0156 153.336 37.8621 149.419 28.6891Z" fill="#FBC441"/>
<path d="M54.7897 38.0306C61.8504 28.8329 61.067 17.394 61.067 17.394C67.6169 25.8381 69.9127 39.4785 68.0037 46.5788C66.0898 53.6742 53.0642 60.6654 50.5752 76.6808C49.8711 83.4291 50.7487 87.5793 52.9502 95.1506C45.716 85.7248 42.5823 80.9004 40.6188 74.0728C39.7462 70.8102 39.6321 63.7445 40.6188 59.0044C41.6105 54.2642 47.7291 47.2283 54.7897 38.0306Z" fill="#FBC441"/>
<path d="M112.946 37.7233C105.885 28.5206 106.669 17.0867 106.669 17.0867C100.114 25.5307 97.8182 39.1711 99.7321 46.2665C101.641 53.3668 114.667 60.358 117.156 76.3735C117.86 83.1218 116.982 87.2669 114.781 94.8433C122.015 85.4175 125.149 80.593 127.112 73.7654C127.985 70.4978 128.104 63.4372 127.112 58.692C126.12 53.9519 120.007 46.921 112.946 37.7233Z" fill="#FBC441"/>
<path d="M65.4252 97.6844C56.1383 87.2967 57.3035 75.3372 65.4252 68.098C73.309 61.0721 81.9712 46.9656 82.6405 43.5493C82.6108 43.3311 82.6108 43.1179 82.6306 42.9246C82.6951 43.0485 82.6951 43.2617 82.6405 43.5493C83.3298 49.3357 94.8331 60.9035 99.246 65.7676C122.441 91.2981 90.6135 105.766 85.3577 105.335C80.1019 104.909 70.4133 103.263 65.4252 97.6844Z" fill="#FBC441"/>
<mask id="mask0_409_1134" style="mask-type:luminance" maskUnits="userSpaceOnUse" x="176" y="-1" width="5" height="108">
<path d="M176.438 -0.148682H180.231V106.475H176.438V-0.148682Z" fill="white"/>
</mask>
<g mask="url(#mask0_409_1134)">
<path d="M178.203 0.257812V105.345" stroke="white" stroke-width="2.72947"/>
</g>
<path d="M251.165 64.209C251.165 68.017 250.232 71.2994 248.368 74.0463C246.514 76.7833 243.856 78.8856 240.395 80.3533C236.929 81.8061 232.804 82.535 228.019 82.535C225.679 82.535 223.438 82.4011 221.296 82.1383C219.163 81.8705 217.155 81.4937 215.266 80.988C213.387 80.4723 211.676 79.8525 210.129 79.1236V69.207C212.733 70.3573 215.643 71.3985 218.856 72.3208C222.069 73.2331 225.342 73.6893 228.674 73.6893C231.381 73.6893 233.637 73.3323 235.437 72.6183C237.232 71.8944 238.57 70.868 239.443 69.5441C240.326 68.2103 240.772 66.6584 240.772 64.8833C240.772 62.9793 240.256 61.3728 239.225 60.0638C238.203 58.7449 236.666 57.535 234.604 56.4343C232.541 55.3385 229.963 54.1634 226.869 52.904C224.766 52.061 222.753 51.0991 220.839 50.0281C218.935 48.9472 217.235 47.6779 215.742 46.2201C214.245 44.7525 213.07 43.022 212.212 41.0238C211.349 39.0157 210.923 36.6505 210.923 33.9235C210.923 30.3039 211.785 27.2099 213.521 24.6415C215.266 22.0631 217.716 20.0947 220.879 18.7311C224.052 17.3577 227.761 16.6685 232.006 16.6685C235.362 16.6685 238.521 17.0205 241.486 17.7196C244.461 18.4237 247.376 19.4154 250.232 20.6946L246.9 29.1436C244.268 28.0726 241.714 27.2148 239.245 26.5653C236.785 25.9207 234.267 25.5935 231.688 25.5935C229.467 25.5935 227.583 25.9306 226.036 26.605C224.489 27.2793 223.309 28.2263 222.505 29.4411C221.712 30.6609 221.315 32.0988 221.315 33.7648C221.315 35.6291 221.772 37.196 222.684 38.4653C223.606 39.7346 225.044 40.8998 226.988 41.956C228.931 43.0022 231.435 44.1723 234.505 45.4665C238.035 46.9242 241.035 48.4563 243.509 50.0678C245.978 51.6693 247.872 53.5882 249.181 55.8195C250.5 58.0557 251.165 60.8522 251.165 64.209Z" fill="#274A83"/>
<path d="M313.829 17.5806V59.0521C313.829 63.5245 312.882 67.5308 310.993 71.0711C309.114 74.6014 306.277 77.3979 302.484 79.4606C298.686 81.5133 293.906 82.5347 288.145 82.5347C279.934 82.5347 273.686 80.3828 269.402 76.0691C265.128 71.7603 262.996 66.0284 262.996 58.8736V17.5806H273.508V57.9414C273.508 63.2964 274.762 67.2432 277.276 69.7819C279.785 72.3206 283.543 73.5899 288.541 73.5899C291.992 73.5899 294.799 72.9899 296.971 71.7851C299.152 70.5703 300.759 68.7853 301.79 66.4301C302.831 64.0798 303.357 61.2337 303.357 57.9017V17.5806H313.829Z" fill="#274A83"/>
<path d="M357.85 81.6621L339.385 28.1517H339.008C339.088 29.3417 339.187 30.978 339.306 33.0506C339.425 35.1281 339.524 37.3494 339.603 39.7146C339.693 42.0846 339.742 44.3506 339.742 46.5174V81.6621H330.183V17.5806H344.958L362.709 68.7307H362.967L381.333 17.5806H396.069V81.6621H386.033V45.9819C386.033 44.0283 386.063 41.9111 386.132 39.6352C386.212 37.3494 386.296 35.1876 386.39 33.1497C386.494 31.1019 386.579 29.4607 386.648 28.2311H386.291L367.132 81.6621H357.85Z" fill="#274A83"/>
<path d="M449.191 81.6621H412.896V17.5806H449.191V26.4262H423.427V43.8399H447.565V52.6459H423.427V72.7569H449.191V81.6621Z" fill="#274A83"/>
<path d="M481.026 17.5806C486.54 17.5806 491.101 18.2549 494.711 19.6036C498.321 20.9423 501.008 22.9851 502.783 25.7321C504.553 28.4839 505.441 31.9746 505.441 36.2041C505.441 39.3675 504.851 42.0549 503.676 44.2762C502.511 46.4976 500.978 48.3421 499.074 49.8097C497.17 51.2675 495.137 52.4277 492.986 53.3004L511.173 81.6621H499.293L483.823 55.9779H473.529V81.6621H462.998V17.5806H481.026ZM480.312 26.3469H473.529V47.2909H480.808C485.687 47.2909 489.222 46.3885 491.419 44.5737C493.625 42.7639 494.731 40.0914 494.731 36.5611C494.731 32.8473 493.551 30.2144 491.201 28.6674C488.86 27.1204 485.231 26.3469 480.312 26.3469Z" fill="#274A83"/>
<path d="M570.648 17.5806V59.0521C570.648 63.5245 569.701 67.5308 567.812 71.0711C565.933 74.6014 563.097 77.3979 559.304 79.4606C555.506 81.5133 550.726 82.5347 544.964 82.5347C536.753 82.5347 530.506 80.3828 526.222 76.0691C521.948 71.7603 519.815 66.0284 519.815 58.8736V17.5806H530.327V57.9414C530.327 63.2964 531.582 67.2432 534.095 69.7819C536.604 72.3206 540.363 73.5899 545.361 73.5899C548.812 73.5899 551.618 72.9899 553.79 71.7851C555.972 70.5703 557.578 68.7853 558.609 66.4301C559.651 64.0798 560.176 61.2337 560.176 57.9017V17.5806H570.648Z" fill="#274A83"/>
<path d="M662.379 49.0164C662.379 56.2258 661.03 62.2452 658.333 67.0846C655.646 71.9239 651.748 75.5683 646.631 78.0127C641.514 80.4473 635.351 81.6621 628.147 81.6621H610.336V17.5806H630.071C636.695 17.5806 642.417 18.7706 647.246 21.1506C652.071 23.5306 655.799 27.0559 658.432 31.7217C661.06 36.3776 662.379 42.1441 662.379 49.0164ZM651.411 49.3139C651.411 44.0531 650.583 39.7294 648.932 36.3429C647.276 32.9613 644.851 30.4425 641.653 28.7864C638.45 27.1353 634.518 26.3072 629.852 26.3072H620.868V72.8561H628.305C636.05 72.8561 641.837 70.8876 645.66 66.9457C649.492 62.9939 651.411 57.1183 651.411 49.3139Z" fill="#E9B519"/>
<path d="M676.13 81.6621V17.5806H686.662V81.6621H676.13Z" fill="#E9B519"/>
<path d="M729.389 46.8548H753.328V79.0245C749.966 80.1351 746.49 81.0028 742.895 81.6226C739.295 82.2275 735.264 82.535 730.797 82.535C724.277 82.535 718.758 81.2458 714.236 78.6675C709.724 76.0792 706.303 72.3208 703.962 67.4021C701.632 62.4735 700.472 56.5285 700.472 49.572C700.472 42.8832 701.766 37.077 704.359 32.1583C706.962 27.2297 710.745 23.4118 715.704 20.7145C720.672 18.0171 726.696 16.6685 733.772 16.6685C737.248 16.6685 740.614 17.0155 743.867 17.6998C747.13 18.3741 750.124 19.3162 752.852 20.5161L749.163 29.2031C746.991 28.1718 744.566 27.309 741.884 26.605C739.196 25.9058 736.41 25.5538 733.514 25.5538C728.923 25.5538 724.971 26.5554 721.654 28.5486C718.332 30.532 715.783 33.3285 713.998 36.9381C712.223 40.5478 711.34 44.807 711.34 49.7108C711.34 54.4708 712.054 58.6507 713.482 62.2455C714.91 65.8452 717.152 68.6467 720.206 70.6548C723.26 72.653 727.212 73.6496 732.066 73.6496C734.486 73.6496 736.539 73.5207 738.234 73.253C739.94 72.9902 741.507 72.6927 742.935 72.3605V55.8393H729.389V46.8548Z" fill="#E9B519"/>
<path d="M768.662 81.6621V17.5806H779.194V81.6621H768.662Z" fill="#E9B519"/>
<path d="M818.292 81.6621H807.72V26.5254H788.958V17.5806H836.994V26.5254H818.292V81.6621Z" fill="#E9B519"/>
<path d="M886.5 81.6621L880.232 63.8716H855.718L849.451 81.6621H838.364L862.204 17.3228H873.866L897.666 81.6621H886.5ZM877.495 54.8474L871.407 37.3148C871.179 36.5512 870.841 35.4703 870.395 34.0819C869.959 32.6936 869.522 31.2805 869.086 29.8376C868.65 28.3848 868.283 27.1601 867.995 26.1684C867.703 27.3733 867.346 28.717 866.924 30.1946C866.498 31.6623 866.091 33.0407 865.695 34.3199C865.298 35.6041 865 36.6008 864.802 37.3148L858.654 54.8474H877.495Z" fill="#E9B519"/>
<path d="M906.124 81.6621V17.5806H916.655V72.7172H943.866V81.6621H906.124Z" fill="#E9B519"/>
<path d="M178.589 -0.148682L178.589 106.465" stroke="#274A83" stroke-width="4"/>
</g>
<defs>
<clipPath id="clip0_409_1134">
<rect width="952" height="106" fill="white"/>
</clipPath>
</defs>
</svg>
