<svg width="167" height="106" viewBox="0 0 167 106" fill="none" xmlns="http://www.w3.org/2000/svg">
<g clip-path="url(#clip0_410_1066)">
<path d="M18.3161 29.0015C22.2332 19.8236 21.2762 9.3516 15.9509 1.19019C23.4579 4.54202 29.7004 8.55827 33.9051 21.2566C36.9644 30.489 34.8422 41.3329 31.3862 51.8197C25.9023 69.4863 25.8032 79.0707 37.8618 94.8432C17.6814 79.8194 9.97119 72.1687 9.97119 58.93C10.3976 41.3279 14.394 38.1744 18.3161 29.0015Z" fill="#FBC441"/>
<path d="M149.419 28.6891C145.497 19.5162 146.459 9.04423 151.784 0.882812C144.273 4.23464 138.03 8.24594 133.825 20.9492C130.766 30.1766 132.888 41.0255 136.344 51.5124C141.828 69.1789 141.927 78.7634 129.869 94.5358C150.049 79.5121 157.759 71.8564 157.759 58.6176C157.333 41.0156 153.336 37.8621 149.419 28.6891Z" fill="#FBC441"/>
<path d="M54.7897 38.0306C61.8504 28.8329 61.067 17.394 61.067 17.394C67.6169 25.8381 69.9127 39.4785 68.0037 46.5788C66.0898 53.6742 53.0642 60.6654 50.5752 76.6808C49.8711 83.4291 50.7487 87.5793 52.9502 95.1506C45.716 85.7248 42.5823 80.9004 40.6188 74.0728C39.7462 70.8102 39.6321 63.7445 40.6188 59.0044C41.6105 54.2642 47.7291 47.2283 54.7897 38.0306Z" fill="#FBC441"/>
<path d="M112.946 37.7233C105.885 28.5206 106.669 17.0867 106.669 17.0867C100.114 25.5307 97.8182 39.1711 99.7321 46.2665C101.641 53.3668 114.667 60.358 117.156 76.3735C117.86 83.1218 116.982 87.2669 114.781 94.8433C122.015 85.4175 125.149 80.593 127.112 73.7654C127.985 70.4978 128.104 63.4372 127.112 58.692C126.12 53.9519 120.007 46.921 112.946 37.7233Z" fill="#FBC441"/>
<path d="M65.4252 97.6844C56.1383 87.2967 57.3035 75.3372 65.4252 68.098C73.309 61.0721 81.9712 46.9656 82.6405 43.5493C82.6108 43.3311 82.6108 43.1179 82.6306 42.9246C82.6951 43.0485 82.6951 43.2617 82.6405 43.5493C83.3298 49.3357 94.8331 60.9035 99.246 65.7676C122.441 91.2981 90.6135 105.766 85.3577 105.335C80.1019 104.909 70.4133 103.263 65.4252 97.6844Z" fill="#FBC441"/>
</g>
<defs>
<clipPath id="clip0_410_1066">
<rect width="167" height="106" fill="white"/>
</clipPath>
</defs>
</svg>
