<svg width="768" height="106" viewBox="0 0 768 106" fill="none" xmlns="http://www.w3.org/2000/svg">
<g clip-path="url(#clip0_413_1251)">
<path d="M75.0786 64.5547C75.0786 68.3627 74.1465 71.6451 72.2821 74.392C70.4277 77.129 67.77 79.2313 64.3091 80.699C60.8432 82.1518 56.7179 82.8807 51.9331 82.8807C49.5928 82.8807 47.3516 82.7468 45.2096 82.484C43.0775 82.2162 41.0694 81.8394 39.1803 81.3337C37.3011 80.818 35.5905 80.1982 34.0435 79.4693V69.5527C36.6466 70.703 39.5571 71.7442 42.7701 72.6665C45.9831 73.5788 49.2556 74.035 52.5876 74.035C55.2949 74.035 57.5509 73.678 59.3508 72.964C61.1457 72.2401 62.4845 71.2137 63.3571 69.8898C64.2397 68.556 64.686 67.0041 64.686 65.229C64.686 63.325 64.1703 61.7185 63.139 60.4095C62.1175 59.0906 60.5805 57.8807 58.5178 56.78C56.4551 55.6842 53.8768 54.5091 50.7828 53.2497C48.6805 52.4067 46.6674 51.4448 44.7535 50.3738C42.8495 49.2929 41.1487 48.0236 39.6563 46.5658C38.1589 45.0982 36.9837 43.3677 36.126 41.3695C35.2632 39.3614 34.8368 36.9962 34.8368 34.2692C34.8368 30.6496 35.6995 27.5556 37.435 24.9872C39.1803 22.4088 41.6297 20.4404 44.7931 19.0768C47.9665 17.7034 51.6753 17.0142 55.9196 17.0142C59.2764 17.0142 62.4349 17.3662 65.4 18.0653C68.375 18.7694 71.2905 19.7611 74.1465 21.0403L70.8145 29.4893C68.1816 28.4183 65.628 27.5605 63.1588 26.911C60.6995 26.2664 58.1806 25.9392 55.6023 25.9392C53.381 25.9392 51.4968 26.2763 49.9498 26.9507C48.4028 27.625 47.2227 28.572 46.4195 29.7868C45.6261 31.0066 45.2295 32.4445 45.2295 34.1105C45.2295 35.9748 45.6856 37.5417 46.598 38.811C47.5202 40.0803 48.9581 41.2455 50.9018 42.3017C52.8455 43.3479 55.3494 44.518 58.4186 45.8122C61.949 47.2699 64.9487 48.802 67.423 50.4135C69.8922 52.015 71.7863 53.9339 73.0953 56.1652C74.4142 58.4014 75.0786 61.1979 75.0786 64.5547Z" fill="#274A83"/>
</g>
<defs>
<clipPath id="clip0_413_1251">
<rect width="767" height="106" fill="white" transform="translate(0.788086)"/>
</clipPath>
</defs>
</svg>
