<svg width="768" height="106" viewBox="0 0 768 106" fill="none" xmlns="http://www.w3.org/2000/svg">
<g clip-path="url(#clip0_413_1552)">
<path d="M305.093 17.9263C310.607 17.9263 315.168 18.6006 318.778 19.9493C322.388 21.288 325.075 23.3309 326.85 26.0778C328.62 28.8296 329.508 32.3203 329.508 36.5498C329.508 39.7132 328.918 42.4006 327.743 44.6219C326.577 46.8433 325.045 48.6878 323.141 50.1554C321.237 51.6132 319.204 52.7734 317.052 53.6461L335.24 82.0078H323.359L307.889 56.3236H297.596V82.0078H287.064V17.9263H305.093ZM304.379 26.6926H297.596V47.6366H304.875C309.754 47.6366 313.289 46.7342 315.486 44.9194C317.692 43.1096 318.798 40.4371 318.798 36.9068C318.798 33.193 317.618 30.5601 315.267 29.0131C312.927 27.4661 309.298 26.6926 304.379 26.6926Z" fill="#274A83"/>
</g>
<defs>
<clipPath id="clip0_413_1552">
<rect width="767" height="106" fill="white" transform="translate(0.94043)"/>
</clipPath>
</defs>
</svg>
