<svg width="768" height="106" viewBox="0 0 768 106" fill="none" xmlns="http://www.w3.org/2000/svg">
<g clip-path="url(#clip0_413_1611)">
<path d="M393.927 17.9263V59.3978C393.927 63.8702 392.98 67.8765 391.09 71.4168C389.211 74.9471 386.375 77.7436 382.582 79.8063C378.784 81.859 374.004 82.8804 368.242 82.8804C360.031 82.8804 353.784 80.7285 349.5 76.4148C345.226 72.106 343.094 66.3741 343.094 59.2193V17.9263H353.605V58.2871C353.605 63.6421 354.86 67.5889 357.374 70.1276C359.883 72.6663 363.641 73.9356 368.639 73.9356C372.09 73.9356 374.897 73.3356 377.068 72.1308C379.25 70.916 380.856 69.131 381.888 66.7758C382.929 64.4255 383.455 61.5794 383.455 58.2474V17.9263H393.927Z" fill="#274A83"/>
</g>
<defs>
<clipPath id="clip0_413_1611">
<rect width="767" height="106" fill="white" transform="translate(0.152344)"/>
</clipPath>
</defs>
</svg>
