<svg width="768" height="106" viewBox="0 0 768 106" fill="none" xmlns="http://www.w3.org/2000/svg">
<g clip-path="url(#clip0_413_1670)">
<path d="M486.445 49.3621C486.445 56.5715 485.096 62.5909 482.399 67.4303C479.712 72.2696 475.814 75.914 470.697 78.3584C465.58 80.793 459.417 82.0078 452.213 82.0078H434.402V17.9263H454.137C460.761 17.9263 466.483 19.1163 471.312 21.4963C476.137 23.8763 479.865 27.4016 482.498 32.0674C485.126 36.7233 486.445 42.4899 486.445 49.3621ZM475.477 49.6596C475.477 44.3988 474.649 40.0751 472.998 36.6886C471.342 33.307 468.917 30.7882 465.719 29.1321C462.516 27.481 458.584 26.6529 453.918 26.6529H444.934V73.2018H452.371C460.116 73.2018 465.903 71.2333 469.726 67.2914C473.558 63.3396 475.477 57.464 475.477 49.6596Z" fill="#E9B519"/>
</g>
<defs>
<clipPath id="clip0_413_1670">
<rect width="767" height="106" fill="white" transform="translate(0.94043)"/>
</clipPath>
</defs>
</svg>
