<svg width="768" height="106" viewBox="0 0 768 106" fill="none" xmlns="http://www.w3.org/2000/svg">
<g clip-path="url(#clip0_413_1311)">
<path d="M137.531 17.9263V59.3978C137.531 63.8702 136.584 67.8765 134.695 71.4168C132.816 74.9471 129.98 77.7436 126.186 79.8063C122.388 81.859 117.608 82.8804 111.847 82.8804C103.636 82.8804 97.3884 80.7285 93.1044 76.4148C88.8303 72.106 86.6982 66.3741 86.6982 59.2193V17.9263H97.2099V58.2871C97.2099 63.6421 98.4644 67.5889 100.978 70.1276C103.487 72.6663 107.246 73.9356 112.244 73.9356C115.695 73.9356 118.501 73.3356 120.673 72.1308C122.854 70.916 124.461 69.131 125.492 66.7758C126.533 64.4255 127.059 61.5794 127.059 58.2474V17.9263H137.531Z" fill="#274A83"/>
</g>
<defs>
<clipPath id="clip0_413_1311">
<rect width="767" height="106" fill="white" transform="translate(0.576172)"/>
</clipPath>
</defs>
</svg>
