<svg width="768" height="106" viewBox="0 0 768 106" fill="none" xmlns="http://www.w3.org/2000/svg">
<g clip-path="url(#clip0_413_1788)">
<path d="M553.455 47.2005H577.394V79.3702C574.032 80.4808 570.556 81.3485 566.962 81.9683C563.362 82.5732 559.331 82.8807 554.863 82.8807C548.343 82.8807 542.824 81.5915 538.302 79.0132C533.79 76.4249 530.369 72.6665 528.029 67.7478C525.698 62.8192 524.538 56.8742 524.538 49.9177C524.538 43.2289 525.832 37.4227 528.425 32.504C531.029 27.5754 534.812 23.7575 539.77 21.0602C544.738 18.3628 550.763 17.0142 557.838 17.0142C561.314 17.0142 564.681 17.3612 567.933 18.0455C571.196 18.7198 574.191 19.6619 576.918 20.8618L573.229 29.5488C571.057 28.5175 568.633 27.6547 565.95 26.9507C563.263 26.2515 560.476 25.8995 557.58 25.8995C552.989 25.8995 549.037 26.9011 545.72 28.8943C542.398 30.8777 539.849 33.6742 538.064 37.2838C536.289 40.8935 535.407 45.1527 535.407 50.0565C535.407 54.8165 536.121 58.9964 537.549 62.5912C538.977 66.1909 541.218 68.9924 544.272 71.0005C547.327 72.9987 551.278 73.9953 556.133 73.9953C558.552 73.9953 560.605 73.8664 562.301 73.5987C564.006 73.3359 565.573 73.0384 567.001 72.7062V56.185H553.455V47.2005Z" fill="#E9B519"/>
</g>
<defs>
<clipPath id="clip0_413_1788">
<rect width="767" height="106" fill="white" transform="translate(0.94043)"/>
</clipPath>
</defs>
</svg>
