<svg width="768" height="106" viewBox="0 0 768 106" fill="none" xmlns="http://www.w3.org/2000/svg">
<g clip-path="url(#clip0_413_1929)">
<path d="M709.778 82.0078L703.511 64.2173H678.997L672.729 82.0078H661.643L685.482 17.6685H697.144L720.944 82.0078H709.778ZM700.774 55.1931L694.685 37.6605C694.457 36.8969 694.12 35.816 693.673 34.4276C693.237 33.0393 692.801 31.6262 692.364 30.1833C691.928 28.7305 691.561 27.5058 691.274 26.5141C690.981 27.719 690.624 29.0627 690.203 30.5403C689.776 32.008 689.37 33.3864 688.973 34.6656C688.576 35.9498 688.279 36.9465 688.08 37.6605L681.932 55.1931H700.774Z" fill="#E9B519"/>
</g>
<defs>
<clipPath id="clip0_413_1929">
<rect width="767" height="106" fill="white" transform="translate(0.152344)"/>
</clipPath>
</defs>
</svg>
