<svg width="768" height="106" viewBox="0 0 768 106" fill="none" xmlns="http://www.w3.org/2000/svg">
<g clip-path="url(#clip0_413_1430)">
<path d="M181.34 82.0078L162.876 28.4974H162.499C162.578 29.6874 162.677 31.3237 162.796 33.3963C162.915 35.4738 163.014 37.6951 163.094 40.0603C163.183 42.4304 163.233 44.6963 163.233 46.8631V82.0078H153.673V17.9263H168.449L186.2 69.0764H186.457L204.823 17.9263H219.559V82.0078H209.524V46.3276C209.524 44.374 209.553 42.2568 209.623 39.9809C209.702 37.6951 209.786 35.5333 209.881 33.4954C209.985 31.4476 210.069 29.8064 210.138 28.5768H209.781L190.622 82.0078H181.34Z" fill="#274A83"/>
</g>
<defs>
<clipPath id="clip0_413_1430">
<rect width="767" height="106" fill="white" transform="translate(0.364258)"/>
</clipPath>
</defs>
</svg>
